<svg xmlns="http://www.w3.org/2000/svg" width="320" height="318" viewBox="720 600 610 450"><path fill="#fff" d="M793.937 1043.065c-31.056-31.747-54.11-68.24-69.343-109.492-17.19-46.55-22.632-94.627-17.019-143.976 5.63-49.5 22.264-94.974 49.896-136.348 33.946-50.827 78.92-88.744 134.95-113.24 52.118-22.787 106.624-30.824 163.006-23.62 76.384 9.759 140.662 43.466 192.647 100.278 31.486 34.408 53.788 74.208 67.287 118.797 12.467 41.177 15.903 83.238 11.051 126.02-6.254 55.14-26.048 105.004-58.968 149.469-32.414 43.782-73.68 76.87-123.501 99.221-25.186 11.298-51.386 19.163-78.601 23.329-29.279 4.482-58.665 4.878-88.142 1.077-53.935-6.953-102.709-26.685-146.184-59.105-13.027-9.714-24.601-21.378-37.079-32.41m511.316-228.382c-1.057-24.39-4.744-48.374-11.808-71.75-10.395-34.4-26.349-66.03-48.706-94.228-51.149-64.51-117.816-101.418-199.596-110.162-38.987-4.17-77.532-.078-114.99 11.837-31.258 9.943-60.303 24.512-86.329 44.575-62.851 48.451-100.76 111.743-112.37 190.48-6.151 41.707-2.827 82.799 9.18 123.067 11.844 39.72 31.46 75.351 58.963 106.487 45.965 52.035 103.116 83.998 171.686 95.3 50.6 8.341 100.025 3.2 147.85-14.837 47.964-18.09 88.526-47.135 120.878-86.99 45.548-56.112 67.056-120.577 65.242-193.78"/><path d="M1305.274 815.164c1.793 72.721-19.715 137.186-65.263 193.299-32.352 39.854-72.914 68.9-120.878 86.99-47.825 18.037-97.25 23.177-147.85 14.836-68.57-11.302-125.721-43.265-171.686-95.3-27.504-31.136-47.119-66.766-58.963-106.487-12.007-40.268-15.331-81.36-9.18-123.067 11.61-78.737 49.519-142.029 112.37-190.48 26.026-20.063 55.071-34.632 86.329-44.575 37.458-11.915 76.003-16.006 114.99-11.837 81.78 8.744 148.447 45.651 199.596 110.162 22.357 28.198 38.31 59.829 48.706 94.228 7.064 23.376 10.75 47.36 11.829 72.23m-168.698 97.997c18.261-24.798 36.552-49.575 54.77-74.404 8.241-11.232 8.014-15.458-.283-26.712-29.042-39.393-57.991-78.854-86.997-118.273-6.511-8.849-12.89-17.81-19.748-26.382-4.57-5.714-11.365-6.86-17.547-3.919-6.28 2.99-10.158 9.252-8.459 15.877 1.07 4.171 3.685 8.138 6.291 11.695 28.34 38.673 56.818 77.245 85.234 115.862.604.821.919 1.857 1.68 3.44h-6.671q-143.729-.001-287.456.004c-2.166 0-4.346-.097-6.494.114-7.25.712-12.622 5.665-14.09 12.832-1.212 5.914 2.164 13.035 8.274 15.599 3.237 1.358 7.104 1.671 10.688 1.674 96.651.084 193.303.066 289.955.066h6.078c-1.257 2.197-1.86 3.52-2.7 4.671-4.316 5.918-8.706 11.781-13.046 17.682-24.755 33.66-49.538 67.3-74.183 101.04-1.795 2.458-3.247 5.556-3.69 8.53-.995 6.678 3.257 13.27 9.24 15.515 6.993 2.623 13.583.608 18.424-5.946 16.812-22.764 33.55-45.583 50.73-68.965"/><path fill="#7ef9d4" d="M1136.369 913.452c-16.973 23.09-33.71 45.91-50.523 68.673-4.84 6.554-11.43 8.57-18.424 5.946-5.983-2.245-10.235-8.837-9.24-15.515.443-2.974 1.895-6.072 3.69-8.53 24.645-33.74 49.428-67.38 74.183-101.04 4.34-5.9 8.73-11.764 13.046-17.682.84-1.15 1.443-2.474 2.7-4.671h-6.078c-96.652 0-193.304.018-289.955-.066-3.584-.003-7.451-.316-10.688-1.674-6.11-2.564-9.486-9.685-8.274-15.6 1.468-7.166 6.84-12.119 14.09-12.83 2.148-.212 4.328-.115 6.494-.115q143.727-.005 287.456-.004h6.671c-.761-1.583-1.076-2.619-1.68-3.44-28.416-38.617-56.894-77.189-85.234-115.862-2.606-3.557-5.22-7.524-6.29-11.695-1.7-6.625 2.179-12.888 8.458-15.877 6.182-2.942 12.976-1.795 17.547 3.919 6.859 8.573 13.237 17.533 19.748 26.382 29.006 39.42 57.955 78.88 86.997 118.273 8.297 11.254 8.524 15.48.283 26.712-18.218 24.83-36.509 49.606-54.977 74.696"/></svg>