<svg xmlns="http://www.w3.org/2000/svg" viewBox="0 0 1024 747" width="1024" height="747" fill="none"><path d="M477 286a87.5 87.5 0 1 0 63.35 147.875 26.254 26.254 0 0 1 38.01 36.225 140 140 0 1 1-.35-193.55 26.264 26.264 0 0 1-37.87 36.4A87.5 87.5 0 0 0 477 286" fill="#2ef170"/><path d="M462.51 97.07a26.25 26.25 0 0 1 26.46 0l165.025 96.25a26.257 26.257 0 0 1-26.46 45.36L475.74 150.13 284.5 261.71v223.58l191.24 111.58 151.795-88.55a26.25 26.25 0 1 1 26.425 45.36l-164.99 96.25a26.25 26.25 0 0 1-26.46 0L245.02 523.055a26.25 26.25 0 0 1-13.02-22.68v-253.75a26.25 26.25 0 0 1 13.02-22.68z" fill="#2ef170"/><path d="M620.5 373.5h63M652 342v63m40.25-31.5h63m-31.5-31.5v63" stroke="#2ef170" stroke-width="36.75" stroke-linecap="round"/></svg>