<svg xmlns="http://www.w3.org/2000/svg" viewBox="0 0 1024 747" width="1024" height="747" fill="none"><g fill="#2ef170"><path d="M477 286a87.5 87.5 0 1 0 63.35 147.875 26.254 26.254 0 0 1 38.01 36.225 140 140 0 1 1-.35-193.55 26.264 26.264 0 0 1-37.87 36.4A87.5 87.5 0 0 0 477 286"/><path d="M462.51 97.07a26.25 26.25 0 0 1 26.46 0l165.025 96.25a26.257 26.257 0 0 1-26.46 45.36L475.74 150.13 284.5 261.71v223.58l191.24 111.58 151.795-88.55a26.25 26.25 0 1 1 26.425 45.36l-164.99 96.25a26.25 26.25 0 0 1-26.46 0L245.02 523.055a26.25 26.25 0 0 1-13.02-22.68v-253.75a26.25 26.25 0 0 1 13.02-22.68z"/><path d="M658.3 277.25a17.5 17.5 0 0 1 17.5 17.5v157.5a17.5 17.5 0 0 1-35 0v-157.5a17.5 17.5 0 0 1 17.5-17.5m74.9 0a17.5 17.5 0 0 1 17.5 17.5v157.5a17.5 17.5 0 0 1-35 0v-157.5a17.5 17.5 0 0 1 17.5-17.5"/><path d="M599.5 336.05a17.5 17.5 0 0 1 17.5-17.5h157.5a17.5 17.5 0 0 1 0 35H617a17.5 17.5 0 0 1-17.5-17.5m0 74.9a17.5 17.5 0 0 1 17.5-17.5h157.5a17.5 17.5 0 0 1 0 35H617a17.5 17.5 0 0 1-17.5-17.5"/></g></svg>