<svg xmlns="http://www.w3.org/2000/svg" viewBox="0 0 1024 747" shape-rendering="geometricPrecision" text-rendering="geometricPrecision"><path d="M666 13h28v2l7 1v2l9 2v2l6 1v2l6 1v2l9 2v2l2.5.813c3.87 1.312 7.68 2.738 11.5 4.187v2l6 1v2l2.438.25c4.521.952 8.409 2.766 12.562 4.75v2l6 1v2l2.168.371c2.883.64 5.418 1.565 8.144 2.691l2.676 1.098L787 57v2l1.793.586C792.915 60.944 796.995 62.32 801 64v2l6 1v2l2.438.25c4.521.952 8.409 2.766 12.562 4.75v2l6 1v2l9 2v2l6 1v2l8 2v2l5 1v2l1.688.125c3.485 1.319 5.04 4.004 7.312 6.875l2 1c4 6.353 4 6.353 4 10h2c1.657 5.795 2.287 10.917 2.252 16.927l.008 2.63c.008 2.904 0 5.808-.006 8.713q.003 3.158.01 6.314c.008 5.782.004 11.563-.003 17.344-.004 6.236.003 12.472.008 18.708q.012 17.264.003 34.527-.008 15.95-.004 31.897v2.138l.002 8.59q.007 40.285-.01 80.572-.014 35.79 0 71.58a127655 127655 0 0 1 .008 89v2.132q-.004 15.938.005 31.877.008 18.123-.007 36.246-.009 9.249 0 18.498.008 8.463-.009 16.928-.002 3.063.004 6.128c.006 2.775 0 5.55-.01 8.324l.015 2.409c-.035 5.142-.851 9.57-2.266 14.518h-2l-.312 2.188c-1.488 6.085-4.874 9.001-9.688 12.812l-1.75 1.813C858 655 858 655 856 655v2l-5 1v2l-8 2v2l-6 1v2l-9 2v2l-6 1v2l-6 1v2l-9 2v2l-6 1v2c-9.41 4.408-9.41 4.408-14 5v2a1741 1741 0 0 1-7 3l-2.75 1.188C775 696 775 696 772 696v2l-6 1v2l-2.414.988c-6.653 2.738-6.653 2.738-13.149 5.824C748 709 748 709 745 709v2q-2.934 1.256-5.875 2.5l-3.305 1.406C733 716 733 716 731 716v2l-9 2v2l-6 1v2l-6 1v2l-9 2v2l-7 1v2h-28v-2l-7-1v-2l-2.375-.437C654 729 654 729 652 728v-2l-3-1v-2l-3-1c-1.25-1.448-2.496-2.902-3.687-4.398-1.424-1.79-1.424-1.79-3.688-3.977-2.644-2.644-5.071-5.4-7.512-8.23a261 261 0 0 0-5.008-5.508l-1.52-1.633a583 583 0 0 0-3.029-3.217C618 691.22 618 691.22 618 689l-3-1c-1.43-1.418-1.43-1.418-2.875-3.187l-1.582-1.91L609 681c-3.162-3.871-6.462-7.467-10-11a576 576 0 0 1-6.312-6.687l-1.667-1.76C587 657.232 587 657.232 587 655l-3-1c-3-3.444-3-3.444-3-6l-3-1c-1.273-1.47-2.542-2.944-3.754-4.465-1.292-1.645-1.292-1.645-3.121-3.41-2.528-2.528-4.846-5.204-7.191-7.902a1115 1115 0 0 0-6.121-6.973l-1.918-2.172a86 86 0 0 0-4.133-4.219C550 616 550 616 550 614l-3-1c-1.613-1.89-1.613-1.89-3.312-4.25-2.12-2.826-4.103-5.305-6.875-7.5-2.763-2.21-4.783-4.362-6.813-7.25v-2h-2l-.812-2.437L526 587l-3-1v-2l-1.785-.727c-2.656-1.526-3.87-3.17-5.653-5.648-2.584-3.452-5.06-6.069-8.562-8.625-2.312-2.062-2.312-2.062-4-4v-3h-2c-1.586-1.574-1.586-1.574-3.375-3.687l-1.887-2.215a312 312 0 0 1-3.925-4.848c-1.768-2.277-1.768-2.277-3.813-4.25-2-2-2-2-3.937-4.437-2.063-2.668-2.063-2.668-4.75-5.188C477 535 477 535 476 532l-3-1c-1.543-1.531-1.543-1.531-3.187-3.5-3.346-3.96-6.803-7.798-10.31-11.617C458 514 458 514 458 512l-3-1v-2l-3-1-1.812-2.75c-1.976-2.935-3.791-4.62-6.543-6.766-2.71-2.445-4.772-5.373-6.934-8.3-1.697-2.266-1.697-2.266-3.922-4.336C431 484 431 484 431 482l-1.797-.781c-2.38-1.317-3.713-2.645-5.453-4.719l-1.578-1.844C421 473 421 473 421 471l-3-1a174 174 0 0 1-4-5l-2.687-2.687C409 460 409 460 408 458c-2.776 1.175-4.865 2.67-7.125 4.625C398 465 398 465 396 465v2l-1.937.313L392 468l-1 3a187 187 0 0 1-6 4l-1.75 1.75L382 478h-2v2l-5 2v2a104 104 0 0 1-5 4l-2.687 2.25C365 492 365 492 363 492v2l-1.937.313L359 495l-1 3c-2.062.688-2.062.688-4 1v2a104 104 0 0 1-5 4l-2.687 2.25C344 509 344 509 342 509v2a104 104 0 0 1-5 4l-2.687 2.25C332 519 332 519 330 519v2c-1.46 1.29-1.46 1.29-3.375 2.625l-1.898 1.352C323 526 323 526 321 526l-1 3h-2v2l-1.687.688c-2.51 1.282-2.51 1.282-4.75 3.812-2.55 2.488-4.323 3.24-7.563 4.5l-1 3h-2v2l-4 1v2l-5 2v2c-4.47 4-4.47 4-7 4v2l-5 2v2c-2.535 2.237-5.16 4.104-8 5.938-3.064 2.106-5.408 4.406-8 7.062-5.505 5-5.505 5-8 5v2c-1.61 1.29-1.61 1.29-3.75 2.625l-2.11 1.352C248 587 248 587 244 587v2c-10.544 1.125-17.69.813-27.332-3.79-3.188-1.446-6.274-2.38-9.668-3.21v-2l-2.312-.187c-4.368-.963-8.02-2.7-12.051-4.602-2.822-1.296-5.66-2.326-8.637-3.211v-2l-7-1v-2l-10-2v-2l-5-1v-2l-1.687-.687c-2.993-1.7-5.048-3.734-7.313-6.313v-3h-2c-1.757-3.8-2.25-6.77-2.252-10.942l-.015-3.631.013-3.978-.01-4.235c-.008-3.878-.004-7.756.003-11.635.004-4.182-.003-8.365-.008-12.548-.01-8.194-.007-16.388-.002-24.582q.007-9.988.003-19.975v-2.87l-.003-5.771q-.006-27.07.012-54.14.012-23.237-.002-46.472a57592 57592 0 0 1-.007-59.695l.001-2.858q.003-9.978-.006-19.955-.008-12.157.007-24.313.009-6.204 0-12.409-.007-5.678.009-11.354c.003-2.021-.004-4.043-.01-6.064l.015-3.63.001-3.135c.264-2.948 1.014-5.133 2.251-7.808h2l.125-2.187c1.274-4.095 3.41-5.337 6.875-7.813h2v-2l5-1v-2l10-2v-2l7-1v-2l2.047-.586 2.703-.789 2.672-.773c2.557-.77 2.557-.77 4.719-1.954C198 171 198 171 201 171v-2l7-1v-2l1.906-.516 2.594-.734 2.531-.703c2.495-.88 4.436-1.856 6.719-3.14 4.61-2.367 8.655-2.373 13.75-2.157l2.492.055c2.003.046 4.006.118 6.008.195v2l2.625.25c3.886.864 6.26 2.303 9.375 4.75v2l1.625.688c2.43 1.342 4.42 2.936 6.516 4.746 3.21 2.703 6.56 5.234 9.882 7.796L276 183v2l4 1v2l5 2v2l1.813.313c2.5.785 3.562 1.656 5.187 3.687v2l5 2v2l1.813.313c2.5.785 3.562 1.656 5.187 3.687v2l2.75.688c3.752 1.515 4.864 3.13 7.25 6.312 2.117 1.312 2.117 1.312 4 2v2l3 1v2l2.25.813c2.64 1.14 4.606 2.28 6.75 4.187v2l1.813.313c2.561.805 3.378 1.733 5.187 3.687l2.688 2.063L342 237v2l1.688.813c7.598 3.901 7.598 3.901 10.312 7.187v2l5 2v2l4 1v2l1.688.813c7.598 3.901 7.598 3.901 10.312 7.187v2l5 2v2l1.688.188c3.263 1.146 4.953 3.332 7.312 5.812l3 2v2l4 1v2l2.188.688c3.336 1.557 5.261 3.693 7.812 6.312h2l1.813-2.75c2.146-3.19 4.165-4.944 7.187-7.25l2-3h2l.813-1.766c1.202-2.262 2.525-4.04 4.187-5.984l1.563-1.86C429 266 429 266 431 266l.688-2.187c1.576-3.379 3.622-5.251 6.312-7.813l1.938-2.5c1.983-2.404 4.11-4.17 6.542-6.098 1.725-1.59 2.95-3.278 4.27-5.214L453 239h2l1-3h2l.73-1.695c1.535-2.787 3.42-4.848 5.582-7.18 2.63-2.859 5.208-5.71 7.625-8.75L474 216h2l.688-1.625c2.642-4.781 6.479-8.542 10.312-12.375a381 381 0 0 0 2.938-3.437c2.547-3.011 5.273-5.774 8.062-8.563l1.688-2.312L501 186h2l.688-1.625c2.876-5.206 7.143-9.206 11.312-13.375a332 332 0 0 0 4.668-5.645L521 164h2l1-3h2l2-5h2l.824-1.785c2.929-5.517 7.804-9.843 12.176-14.215q1.356-1.646 2.688-3.312L548 134h2l1-3a176 176 0 0 1 4-4q1.731-1.958 3.438-3.937c2.021-2.337 4.035-4.525 6.25-6.688 2.427-2.337 2.427-2.337 4.25-5.375 2.372-3.45 4.812-5.386 8.062-8l2-3h2l.875-1.812C583 96 583 96 585 93h2l.637-1.602c1.921-3.38 4.503-5.968 7.176-8.773 3.054-3.232 6.085-6.453 8.917-9.883 2.283-2.757 4.74-5.212 7.27-7.742q1.356-1.645 2.688-3.312L616 59h2l1-3h2l.805-1.77c1.232-2.298 2.577-3.984 4.32-5.917L628 46.215 630 44q2.064-2.31 4.125-4.625l2.023-2.27a210 210 0 0 0 4.602-5.417c1.99-2.377 3.943-4.62 6.25-6.688h2l1-3c5.257-4 5.257-4 9-4v-2l7-1zm25 210-1 3c-1.31.71-2.65 1.366-4 2a214 214 0 0 0-6.25 4.5l-1.68 1.223c-1.396 1.042-2.738 2.154-4.07 3.277v2l-1.734.813c-2.345 1.228-4.39 2.612-6.516 4.187l-2.14 1.563L662 247v2l-5 2v2l-4 1v2l-1.734.813c-2.345 1.228-4.39 2.612-6.516 4.187l-2.14 1.563L641 264v2l-5 2v2l-3 1v2l-2.25.813c-2.64 1.14-4.606 2.28-6.75 4.187v2l-1.687.188c-3.264 1.146-4.954 3.332-7.313 5.812l-3 2v2l-1.687.813c-2.525 1.296-4.95 2.612-7.313 4.187v2l-3 1v2l-5 2v2l-4 1v2l-1.687.813c-2.525 1.296-4.95 2.612-7.313 4.187v2l-3 1v2l-5 2v2l-1.734.813c-2.345 1.228-4.39 2.612-6.516 4.187l-2.14 1.563L562 329v2l-4 1v2l-1.734.813c-2.345 1.228-4.39 2.612-6.516 4.187l-2.14 1.563L546 342v2l-5 2v2l-3 1v2l-1.687.25c-3.05.989-4.965 2.598-7.313 4.75v2l-1.812.313c-2.497.784-3.445 1.786-5.188 3.687l-2 1v2l-3 1v2l-2.25.813c-2.64 1.14-4.606 2.28-6.75 4.187v2c1.486 1.36 1.486 1.36 3.375 2.625l1.898 1.352c1.68 1.193 1.68 1.193 3.727 1.023l1 3h2v2l1.813.813c2.165 1.175 3.463 2.463 5.187 4.187h2v2c2.173 2.045 2.173 2.045 4.875 4.125l2.742 2.195c2.17 1.872 2.17 1.872 4.383 1.68l1 3c2.015.733 2.015.733 4 1v2c2.173 2.045 2.173 2.045 4.875 4.125l2.742 2.195c2.17 1.872 2.17 1.872 4.383 1.68v2l1.938.313L562 417l1 3c2.016 1.896 2.016 1.896 4.438 3.688l2.433 1.886c1.979 1.611 1.979 1.611 4.129 1.426l1 3 2 .5 2 .5 1 3h2v2c2.962 2.172 5.507 3.836 9 5v2l1.938.313L595 444l1 3c3.055 3.033 3.055 3.033 7 4v2c1.486 1.36 1.486 1.36 3.375 2.625l1.898 1.352c1.68 1.193 1.68 1.193 3.727 1.023l1 3a187 187 0 0 0 6 4l3 3h2v2c1.486 1.36 1.486 1.36 3.375 2.625l1.898 1.352c1.68 1.193 1.68 1.193 3.727 1.023l1 3h2v2l5 2v2c2.173 2.045 2.173 2.045 4.875 4.125l2.742 2.195c2.17 1.872 2.17 1.872 4.383 1.68v2l1.938.313L657 495l1 3c2.015.733 2.015.733 4 1v2c2.173 2.045 2.173 2.045 4.875 4.125l2.742 2.195c2.17 1.872 2.17 1.872 4.383 1.68l1 3c3.63 2.972 3.63 2.972 8 4l1 3c1.558 1.659 1.558 1.659 3.438 3.188l1.87 1.605c1.617 1.4 1.617 1.4 3.692 1.207V223zm-450 51v200l5-4v-2h2c3.025-3.056 3.025-3.056 4-7l3-1c1.75-1.689 1.75-1.689 3.438-3.75l1.863-2.191a290 290 0 0 0 3.824-4.747C266 447 266 447 268.625 444.438c2.414-2.23 2.414-2.23 3.5-4.687C273 438 273 438 276 437c2.41-2.635 2.41-2.635 3-6l4-2v-2l3-1c1.686-1.923 1.686-1.923 3.313-4.25 2.15-2.88 4.142-5.315 7-7.5 2.785-2.332 3.703-3.806 4.687-7.25h2c3.025-3.056 3.025-3.056 4-7l3-1v-2l1.875-.687c2.747-1.697 2.991-3.366 4.125-6.313l3-1c1.246-1.443 2.486-2.891 3.668-4.387C324 383 324 383 326.688 380.438c3.125-3.242 3.125-3.242 4.312-7.438-2.408-5.174-6.642-8.514-11-12l-2-3h-2l-.75-2.375c-1.445-3.034-2.306-3.295-5.25-4.625l-1-3h-2l-.875-1.812c-1.172-2.381-1.172-2.381-3.125-5.188h-2l-.625-2.187c-1.452-2.97-3-4.237-5.586-6.211-3.135-2.807-5.53-6.24-8.055-9.59L285 321h-2l-2-4h-2l-.875-1.812c-1.172-2.381-1.172-2.381-3.125-5.188h-2l-.687-1.687c-1.319-2.324-2.834-3.862-4.754-5.692-2.766-2.876-5.146-6.072-7.594-9.219-1.88-2.3-3.757-4.414-5.965-6.402h-2l-.875-1.812c-1.172-2.381-1.172-2.381-3.125-5.188h-2l-.812-1.875C244.044 275.7 244.044 275.7 241 274" fill="#2ef170"/></svg>