<svg id="convertedSVG" xmlns="http://www.w3.org/2000/svg" xmlns:xlink="http://www.w3.org/1999/xlink" viewBox="0 0 1024 747" shape-rendering="geometricPrecision" text-rendering="geometricPrecision">
<g transform="matrix(1 0 0 1 0 0)">
<path d="M0 0 C9.24 0 18.48 0 28 0 C28 0.66 28 1.32 28 2 C30.31 2.33 32.62 2.66 35 3 C35 3.66 35 4.32 35 5 C37.97 5.66 40.94 6.32 44 7 C44 7.66 44 8.32 44 9 C45.98 9.33 47.96 9.66 50 10 C50 10.66 50 11.32 50 12 C51.98 12.33 53.96 12.66 56 13 C56 13.66 56 14.32 56 15 C58.97 15.66 61.94 16.32 65 17 C65 17.66 65 18.32 65 19 C65.825 19.268125 66.65 19.53625 67.5 19.8125 C71.36915561 21.12524922 75.17994294 22.55101284 79 24 C79 24.66 79 25.32 79 26 C80.98 26.33 82.96 26.66 85 27 C85 27.66 85 28.32 85 29 C85.804375 29.0825 86.60875 29.165 87.4375 29.25 C91.95934205 30.20196675 95.84702701 32.01580179 100 34 C100 34.66 100 35.32 100 36 C101.98 36.33 103.96 36.66 106 37 C106 37.66 106 38.32 106 39 C107.07314453 39.18369141 107.07314453 39.18369141 108.16796875 39.37109375 C111.05112713 40.01135375 113.58592473 40.93551556 116.3125 42.0625 C117.19550781 42.42472656 118.07851563 42.78695312 118.98828125 43.16015625 C119.65214844 43.43730469 120.31601562 43.71445312 121 44 C121 44.66 121 45.32 121 46 C121.59167969 46.19335938 122.18335938 46.38671875 122.79296875 46.5859375 C126.9146645 47.94414719 130.9950524 49.32050585 135 51 C135 51.66 135 52.32 135 53 C136.98 53.33 138.96 53.66 141 54 C141 54.66 141 55.32 141 56 C141.804375 56.0825 142.60875 56.165 143.4375 56.25 C147.95934205 57.20196675 151.84702701 59.01580179 156 61 C156 61.66 156 62.32 156 63 C157.98 63.33 159.96 63.66 162 64 C162 64.66 162 65.32 162 66 C164.97 66.66 167.94 67.32 171 68 C171 68.66 171 69.32 171 70 C172.98 70.33 174.96 70.66 177 71 C177 71.66 177 72.32 177 73 C179.64 73.66 182.28 74.32 185 75 C185 75.66 185 76.32 185 77 C187.475 77.495 187.475 77.495 190 78 C190 78.66 190 79.32 190 80 C190.556875 80.04125 191.11375 80.0825 191.6875 80.125 C195.17293296 81.44381247 196.72741349 84.1293644 199 87 C199.66 87.33 200.32 87.66 201 88 C205 94.35294118 205 94.35294118 205 98 C205.66 98 206.32 98 207 98 C208.65709436 103.79498924 209.28708035 108.91741297 209.25168228 114.92689514 C209.25458916 115.7947997 209.25749604 116.66270427 209.26049101 117.55690897 C209.2677821 120.46126892 209.26085175 123.36541702 209.25396729 126.26977539 C209.25627206 128.37462758 209.2594487 130.47947895 209.26342177 132.58432865 C209.27177602 138.36563346 209.2676416 144.1468723 209.26144934 149.92817736 C209.25692845 156.16410807 209.26390681 162.40002736 209.26940918 168.63595581 C209.2777943 180.14506435 209.27705954 191.65414346 209.27158624 203.16325185 C209.26655473 213.79561457 209.26524192 224.42796958 209.26763153 235.06033325 C209.26786069 236.11832217 209.26786069 236.11832217 209.26809447 237.19768459 C209.26871715 240.06084728 209.26935395 242.92400997 209.270014 245.78717265 C209.27613172 272.64470492 209.27058552 299.50222378 209.2598202 326.35975398 C209.25032903 350.21998639 209.25117828 374.08019746 209.26074219 397.94042969 C209.27145192 424.74890565 209.27569785 451.55736978 209.26951766 478.36584759 C209.26887623 481.22378731 209.26825055 484.08172703 209.26763153 486.93966675 C209.26747338 487.64336211 209.26731522 488.34705746 209.26715227 489.07207692 C209.26487753 499.69764153 209.26753752 510.32319757 209.27259064 520.94876099 C209.27830774 533.03074724 209.27668988 545.11270278 209.26602915 557.19468808 C209.26076806 563.36066064 209.25872318 569.52658985 209.26532745 575.6925621 C209.2712799 581.33524816 209.26802335 586.9778506 209.25737235 592.62052906 C209.25513535 594.66348655 209.25628133 596.70645109 209.26112393 598.74940407 C209.26719726 601.52407173 209.26097545 604.29845222 209.25168228 607.07310486 C209.25636461 607.86801814 209.26104695 608.66293143 209.26587117 609.481933 C209.23140396 614.62390003 208.41483521 619.05221007 207 624 C206.34 624 205.68 624 205 624 C204.8453125 625.0828125 204.8453125 625.0828125 204.6875 626.1875 C203.19981689 632.27347636 199.81378765 635.18908478 195 639 C194.13375 639.8971875 194.13375 639.8971875 193.25 640.8125 C192 642 192 642 190 642 C190 642.66 190 643.32 190 644 C188.35 644.33 186.7 644.66 185 645 C185 645.66 185 646.32 185 647 C182.36 647.66 179.72 648.32 177 649 C177 649.66 177 650.32 177 651 C175.02 651.33 173.04 651.66 171 652 C171 652.66 171 653.32 171 654 C168.03 654.66 165.06 655.32 162 656 C162 656.66 162 657.32 162 658 C160.02 658.33 158.04 658.66 156 659 C156 659.66 156 660.32 156 661 C154.02 661.33 152.04 661.66 150 662 C150 662.66 150 663.32 150 664 C147.03 664.66 144.06 665.32 141 666 C141 666.66 141 667.32 141 668 C139.02 668.33 137.04 668.66 135 669 C135 669.66 135 670.32 135 671 C125.58997722 675.40774487 125.58997722 675.40774487 121 676 C121 676.66 121 677.32 121 678 C118.66890803 679.00556908 116.33543981 680.00464623 114 681 C113.0925 681.391875 112.185 681.78375 111.25 682.1875 C109 683 109 683 106 683 C106 683.66 106 684.32 106 685 C104.02 685.33 102.04 685.66 100 686 C100 686.66 100 687.32 100 688 C99.20335937 688.32613281 98.40671875 688.65226563 97.5859375 688.98828125 C90.93278429 691.72612879 90.93278429 691.72612879 84.4375 694.8125 C82 696 82 696 79 696 C79 696.66 79 697.32 79 698 C77.04350603 698.83764268 75.08474444 699.66999059 73.125 700.5 C72.03445313 700.9640625 70.94390625 701.428125 69.8203125 701.90625 C67 703 67 703 65 703 C65 703.66 65 704.32 65 705 C62.03 705.66 59.06 706.32 56 707 C56 707.66 56 708.32 56 709 C54.02 709.33 52.04 709.66 50 710 C50 710.66 50 711.32 50 712 C48.02 712.33 46.04 712.66 44 713 C44 713.66 44 714.32 44 715 C41.03 715.66 38.06 716.32 35 717 C35 717.66 35 718.32 35 719 C32.69 719.33 30.38 719.66 28 720 C28 720.66 28 721.32 28 722 C18.76 722 9.52 722 0 722 C0 721.34 0 720.68 0 720 C-2.31 719.67 -4.62 719.34 -7 719 C-7 718.34 -7 717.68 -7 717 C-7.78375 716.855625 -8.5675 716.71125 -9.375 716.5625 C-12 716 -12 716 -14 715 C-14 714.34 -14 713.68 -14 713 C-14.99 712.67 -15.98 712.34 -17 712 C-17 711.34 -17 710.68 -17 710 C-17.99 709.67 -18.98 709.34 -20 709 C-21.25052263 707.55202643 -22.49578058 706.09830534 -23.6875 704.6015625 C-25.11079657 702.81105702 -25.11079657 702.81105702 -27.375 700.625 C-30.01933013 697.98066987 -32.44608538 695.2248001 -34.88671875 692.39453125 C-36.53172692 690.53059408 -38.19758613 688.70255461 -39.89453125 686.88671875 C-40.39645996 686.34797119 -40.89838867 685.80922363 -41.41552734 685.25415039 C-42.4209355 684.17794111 -43.43031548 683.10542712 -44.44384766 682.03686523 C-48 678.22137125 -48 678.22137125 -48 676 C-48.99 675.67 -49.98 675.34 -51 675 C-52.4296875 673.58203125 -52.4296875 673.58203125 -53.875 671.8125 C-54.39707031 671.18214844 -54.91914062 670.55179688 -55.45703125 669.90234375 C-55.96621094 669.27457031 -56.47539063 668.64679687 -57 668 C-60.16205793 664.12904413 -63.46166478 660.53329485 -67 657 C-69.12592559 654.79085796 -71.22213457 652.55526145 -73.3125 650.3125 C-73.86228516 649.73177734 -74.41207031 649.15105469 -74.97851562 648.55273438 C-79 644.23151203 -79 644.23151203 -79 642 C-79.99 641.67 -80.98 641.34 -82 641 C-85 637.55555556 -85 637.55555556 -85 635 C-85.99 634.67 -86.98 634.34 -88 634 C-89.27345479 632.53062909 -90.54231329 631.0559391 -91.75390625 629.53515625 C-93.04550156 627.8898886 -93.04550156 627.8898886 -94.875 626.125 C-97.4034326 623.5965674 -99.72138282 620.92069396 -102.06640625 618.22265625 C-104.09644683 615.88913485 -106.13810489 613.56654159 -108.1875 611.25 C-108.82042969 610.53328125 -109.45335937 609.8165625 -110.10546875 609.078125 C-111.43172357 607.62334651 -112.8155905 606.21999373 -114.23828125 604.859375 C-116 603 -116 603 -116 601 C-116.99 600.67 -117.98 600.34 -119 600 C-120.61328125 598.109375 -120.61328125 598.109375 -122.3125 595.75 C-124.43217946 592.92376072 -126.41511953 590.44538758 -129.1875 588.25 C-131.9499531 586.04003752 -133.97037387 583.88831411 -136 581 C-136 580.34 -136 579.68 -136 579 C-136.66 579 -137.32 579 -138 579 C-138.268125 578.195625 -138.53625 577.39125 -138.8125 576.5625 C-139.204375 575.716875 -139.59625 574.87125 -140 574 C-140.99 573.67 -141.98 573.34 -143 573 C-143 572.34 -143 571.68 -143 571 C-143.88365234 570.64035156 -143.88365234 570.64035156 -144.78515625 570.2734375 C-147.44066442 568.74663739 -148.65476731 567.10353367 -150.4375 564.625 C-153.02212944 561.17330471 -155.49718742 558.55610648 -159 556 C-161.3125 553.9375 -161.3125 553.9375 -163 552 C-163 551.01 -163 550.02 -163 549 C-163.66 549 -164.32 549 -165 549 C-166.5859375 547.42578125 -166.5859375 547.42578125 -168.375 545.3125 C-168.99761719 544.58160156 -169.62023437 543.85070312 -170.26171875 543.09765625 C-171.58845258 541.49663138 -172.89308454 539.87726516 -174.1875 538.25 C-175.95522683 535.97339104 -175.95522683 535.97339104 -178 534 C-180 532 -180 532 -181.9375 529.5625 C-184.00039183 526.89531453 -184.00039183 526.89531453 -186.6875 524.375 C-189 522 -189 522 -190 519 C-190.99 518.67 -191.98 518.34 -193 518 C-194.54296875 516.46875 -194.54296875 516.46875 -196.1875 514.5 C-199.53303861 510.53968292 -202.99004337 506.70154669 -206.49609375 502.8828125 C-208 501 -208 501 -208 499 C-208.99 498.67 -209.98 498.34 -211 498 C-211 497.34 -211 496.68 -211 496 C-211.99 495.67 -212.98 495.34 -214 495 C-214.598125 494.0925 -215.19625 493.185 -215.8125 492.25 C-217.78799166 489.31498381 -219.60318263 487.6304614 -222.35546875 485.484375 C-225.06510933 483.03861866 -227.12748631 480.11136244 -229.2890625 477.18359375 C-230.98589336 474.91770435 -230.98589336 474.91770435 -233.2109375 472.84765625 C-235 471 -235 471 -235 469 C-235.59296875 468.7421875 -236.1859375 468.484375 -236.796875 468.21875 C-239.17660965 466.90230105 -240.50978792 465.57419218 -242.25 463.5 C-242.77078125 462.8915625 -243.2915625 462.283125 -243.828125 461.65625 C-245 460 -245 460 -245 458 C-245.99 457.67 -246.98 457.34 -248 457 C-249.36639342 455.3603279 -250.6949419 453.68889872 -252 452 C-252.886875 451.113125 -253.77375 450.22625 -254.6875 449.3125 C-257 447 -257 447 -258 445 C-260.77612564 446.17451469 -262.8650269 447.66968014 -265.125 449.625 C-268 452 -268 452 -270 452 C-270 452.66 -270 453.32 -270 454 C-270.639375 454.103125 -271.27875 454.20625 -271.9375 454.3125 C-272.618125 454.539375 -273.29875 454.76625 -274 455 C-274.33 455.99 -274.66 456.98 -275 458 C-276.97321053 459.3726682 -278.97543152 460.70427617 -281 462 C-281.5775 462.5775 -282.155 463.155 -282.75 463.75 C-283.1625 464.1625 -283.575 464.575 -284 465 C-284.66 465 -285.32 465 -286 465 C-286 465.66 -286 466.32 -286 467 C-287.65 467.66 -289.3 468.32 -291 469 C-291 469.66 -291 470.32 -291 471 C-292.62053812 472.38903267 -294.29705213 473.71332828 -296 475 C-296.886875 475.7425 -297.77375 476.485 -298.6875 477.25 C-301 479 -301 479 -303 479 C-303 479.66 -303 480.32 -303 481 C-303.639375 481.103125 -304.27875 481.20625 -304.9375 481.3125 C-305.618125 481.539375 -306.29875 481.76625 -307 482 C-307.33 482.99 -307.66 483.98 -308 485 C-310.0625 485.6875 -310.0625 485.6875 -312 486 C-312 486.66 -312 487.32 -312 488 C-313.62053812 489.38903267 -315.29705213 490.71332828 -317 492 C-317.886875 492.7425 -318.77375 493.485 -319.6875 494.25 C-322 496 -322 496 -324 496 C-324 496.66 -324 497.32 -324 498 C-325.62053812 499.38903267 -327.29705213 500.71332828 -329 502 C-329.886875 502.7425 -330.77375 503.485 -331.6875 504.25 C-334 506 -334 506 -336 506 C-336 506.66 -336 507.32 -336 508 C-337.4609375 509.2890625 -337.4609375 509.2890625 -339.375 510.625 C-340.00148438 511.07101562 -340.62796875 511.51703125 -341.2734375 511.9765625 C-343 513 -343 513 -345 513 C-345.33 513.99 -345.66 514.98 -346 516 C-346.66 516 -347.32 516 -348 516 C-348 516.66 -348 517.32 -348 518 C-348.556875 518.226875 -349.11375 518.45375 -349.6875 518.6875 C-352.19672664 519.969939 -352.19672664 519.969939 -354.4375 522.5 C-356.98768452 524.98798489 -358.75967724 525.73987448 -362 527 C-362.33 527.99 -362.66 528.98 -363 530 C-363.66 530 -364.32 530 -365 530 C-365 530.66 -365 531.32 -365 532 C-366.32 532.33 -367.64 532.66 -369 533 C-369 533.66 -369 534.32 -369 535 C-370.65 535.66 -372.3 536.32 -374 537 C-374 537.66 -374 538.32 -374 539 C-378.47058824 543 -378.47058824 543 -381 543 C-381 543.66 -381 544.32 -381 545 C-382.65 545.66 -384.3 546.32 -386 547 C-386 547.66 -386 548.32 -386 549 C-388.53470932 551.23650822 -391.16037446 553.10357517 -394 554.9375 C-397.0639818 557.04398748 -399.40839594 559.34360584 -402 562 C-407.50546448 567 -407.50546448 567 -410 567 C-410 567.66 -410 568.32 -410 569 C-411.609375 570.2890625 -411.609375 570.2890625 -413.75 571.625 C-414.79414063 572.29402344 -414.79414063 572.29402344 -415.859375 572.9765625 C-418 574 -418 574 -422 574 C-422 574.66 -422 575.32 -422 576 C-432.54365823 577.1253494 -439.68980924 576.81260483 -449.33203125 572.2109375 C-452.52003821 570.76396509 -455.60613851 569.82961059 -459 569 C-459 568.34 -459 567.68 -459 567 C-459.763125 566.938125 -460.52625 566.87625 -461.3125 566.8125 C-465.68031161 565.85010083 -469.33261306 564.11354486 -473.36328125 562.2109375 C-476.18508141 560.91499965 -479.02392505 559.88477904 -482 559 C-482 558.34 -482 557.68 -482 557 C-484.31 556.67 -486.62 556.34 -489 556 C-489 555.34 -489 554.68 -489 554 C-492.3 553.34 -495.6 552.68 -499 552 C-499 551.34 -499 550.68 -499 550 C-500.65 549.67 -502.3 549.34 -504 549 C-504 548.34 -504 547.68 -504 547 C-504.556875 546.773125 -505.11375 546.54625 -505.6875 546.3125 C-508.68041199 544.61382022 -510.73527237 542.57927313 -513 540 C-513 539.01 -513 538.02 -513 537 C-513.66 537 -514.32 537 -515 537 C-516.75692852 533.20043574 -517.25037213 530.23089503 -517.25168228 526.05758667 C-517.25689778 524.85939363 -517.26211327 523.6612006 -517.26748681 522.42669868 C-517.26302537 521.11396917 -517.25856392 519.80123966 -517.25396729 518.44873047 C-517.25627181 517.03729529 -517.25944828 515.62586132 -517.26342177 514.21442986 C-517.27177958 510.33600882 -517.26764003 506.45768606 -517.26144934 502.57926464 C-517.25692989 498.39652524 -517.26390609 494.21380292 -517.26940918 490.03106689 C-517.27831024 481.83712026 -517.276378 473.64321022 -517.2705839 465.44926214 C-517.26607022 458.79085839 -517.26545323 452.1324649 -517.26763153 445.47406006 C-517.267938 444.52700758 -517.26824446 443.5799551 -517.26856022 442.60420406 C-517.26919966 440.68038638 -517.26984808 438.75656871 -517.2705054 436.83275104 C-517.27621078 418.78598451 -517.26964753 400.73923828 -517.25890467 382.69247508 C-517.24996897 367.20187426 -517.25152095 351.71130341 -517.26074219 336.22070312 C-517.27144114 318.23925088 -517.27566144 300.25781645 -517.26951766 282.27636147 C-517.26888055 280.35955429 -517.26825181 278.44274712 -517.26763153 276.52593994 C-517.26732298 275.58279273 -517.26701443 274.63964552 -517.26669653 273.66791809 C-517.26496846 267.01621758 -517.26788709 260.36452835 -517.27259064 253.71282959 C-517.2781953 245.60849609 -517.27669175 237.50420135 -517.26602915 229.3998723 C-517.26076685 225.26360217 -517.25872518 221.12739669 -517.26532745 216.99112701 C-517.27127748 213.20628789 -517.26802749 209.42157347 -517.25737235 205.63674569 C-517.25407232 203.61559745 -517.26061777 201.59444058 -517.26748681 199.57330132 C-517.26227132 198.37510828 -517.25705582 197.17691525 -517.25168228 195.94241333 C-517.25135758 194.90810747 -517.25103287 193.87380161 -517.25069833 192.80815315 C-516.98748838 189.85985331 -516.23675498 187.67462789 -515 185 C-514.34 185 -513.68 185 -513 185 C-512.95875 184.278125 -512.9175 183.55625 -512.875 182.8125 C-511.60118706 178.71810125 -509.46571675 177.47551196 -506 175 C-505.34 175 -504.68 175 -504 175 C-504 174.34 -504 173.68 -504 173 C-502.35 172.67 -500.7 172.34 -499 172 C-499 171.34 -499 170.68 -499 170 C-494.05 169.01 -494.05 169.01 -489 168 C-489 167.34 -489 166.68 -489 166 C-486.69 165.67 -484.38 165.34 -482 165 C-482 164.34 -482 163.68 -482 163 C-481.32453125 162.80664062 -480.6490625 162.61328125 -479.953125 162.4140625 C-479.06109375 162.15367187 -478.1690625 161.89328125 -477.25 161.625 C-476.36828125 161.36976563 -475.4865625 161.11453125 -474.578125 160.8515625 C-472.02137668 160.08121569 -472.02137668 160.08121569 -469.859375 158.8984375 C-468 158 -468 158 -465 158 C-465 157.34 -465 156.68 -465 156 C-462.69 155.67 -460.38 155.34 -458 155 C-458 154.34 -458 153.68 -458 153 C-457.3709375 152.82984375 -456.741875 152.6596875 -456.09375 152.484375 C-454.80984375 152.12085938 -454.80984375 152.12085938 -453.5 151.75 C-452.6646875 151.51796875 -451.829375 151.2859375 -450.96875 151.046875 C-448.47386582 150.16710005 -446.53295371 149.19140926 -444.25 147.90625 C-439.63934375 145.53985358 -435.59456478 145.53426924 -430.5 145.75 C-429.67757812 145.76804688 -428.85515625 145.78609375 -428.0078125 145.8046875 C-426.00469196 145.8512717 -424.00218179 145.92299301 -422 146 C-422 146.66 -422 147.32 -422 148 C-421.13375 148.0825 -420.2675 148.165 -419.375 148.25 C-415.48892222 149.11357284 -413.11499979 150.55250016 -410 153 C-410 153.66 -410 154.32 -410 155 C-409.46375 155.226875 -408.9275 155.45375 -408.375 155.6875 C-405.94531206 157.03022228 -403.95582303 158.6235162 -401.859375 160.43359375 C-398.64989362 163.13737953 -395.29906327 165.66753674 -391.9765625 168.23046875 C-391.32429688 168.81441406 -390.67203125 169.39835938 -390 170 C-390 170.66 -390 171.32 -390 172 C-388.68 172.33 -387.36 172.66 -386 173 C-386 173.66 -386 174.32 -386 175 C-384.35 175.66 -382.7 176.32 -381 177 C-381 177.66 -381 178.32 -381 179 C-380.1028125 179.1546875 -380.1028125 179.1546875 -379.1875 179.3125 C-376.68741714 180.09824033 -375.62464918 180.96918853 -374 183 C-374 183.66 -374 184.32 -374 185 C-372.35 185.66 -370.7 186.32 -369 187 C-369 187.66 -369 188.32 -369 189 C-368.1028125 189.1546875 -368.1028125 189.1546875 -367.1875 189.3125 C-364.68741714 190.09824033 -363.62464918 190.96918853 -362 193 C-362 193.66 -362 194.32 -362 195 C-360.63875 195.3403125 -360.63875 195.3403125 -359.25 195.6875 C-355.49769658 197.2028533 -354.38619916 198.81840112 -352 202 C-349.88339573 203.31165257 -349.88339573 203.31165257 -348 204 C-348 204.66 -348 205.32 -348 206 C-347.01 206.33 -346.02 206.66 -345 207 C-345 207.66 -345 208.32 -345 209 C-344.2575 209.268125 -343.515 209.53625 -342.75 209.8125 C-340.10938051 210.95276751 -338.14447156 212.09380306 -336 214 C-336 214.66 -336 215.32 -336 216 C-335.1028125 216.1546875 -335.1028125 216.1546875 -334.1875 216.3125 C-331.62603834 217.11753081 -330.80892398 218.0463621 -329 220 C-328.113125 220.680625 -327.22625 221.36125 -326.3125 222.0625 C-325.549375 222.701875 -324.78625 223.34125 -324 224 C-324 224.66 -324 225.32 -324 226 C-323.443125 226.268125 -322.88625 226.53625 -322.3125 226.8125 C-314.71428571 230.71428571 -314.71428571 230.71428571 -312 234 C-312 234.66 -312 235.32 -312 236 C-310.35 236.66 -308.7 237.32 -307 238 C-307 238.66 -307 239.32 -307 240 C-305.68 240.33 -304.36 240.66 -303 241 C-303 241.66 -303 242.32 -303 243 C-302.443125 243.268125 -301.88625 243.53625 -301.3125 243.8125 C-293.71428571 247.71428571 -293.71428571 247.71428571 -291 251 C-291 251.66 -291 252.32 -291 253 C-289.35 253.66 -287.7 254.32 -286 255 C-286 255.66 -286 256.32 -286 257 C-285.1646875 257.0928125 -285.1646875 257.0928125 -284.3125 257.1875 C-281.04903513 258.33412279 -279.35945094 260.51955157 -277 263 C-276.01 263.66 -275.02 264.32 -274 265 C-274 265.66 -274 266.32 -274 267 C-272.68 267.33 -271.36 267.66 -270 268 C-270 268.66 -270 269.32 -270 270 C-268.9171875 270.3403125 -268.9171875 270.3403125 -267.8125 270.6875 C-264.47560763 272.24471644 -262.55051994 274.38054709 -260 277 C-259.34 277 -258.68 277 -258 277 C-257.401875 276.0925 -256.80375 275.185 -256.1875 274.25 C-254.04057256 271.06027923 -252.02228095 269.30647757 -249 267 C-248.34 266.01 -247.68 265.02 -247 264 C-246.34 264 -245.68 264 -245 264 C-244.731875 263.41734375 -244.46375 262.8346875 -244.1875 262.234375 C-242.98519009 259.97213399 -241.66174087 258.19423682 -240 256.25 C-239.484375 255.63640625 -238.96875 255.0228125 -238.4375 254.390625 C-237 253 -237 253 -235 253 C-234.6596875 251.9171875 -234.6596875 251.9171875 -234.3125 250.8125 C-232.73594914 247.43417673 -230.69013425 245.56203262 -228 243 C-227.360625 242.175 -226.72125 241.35 -226.0625 240.5 C-224.07945977 238.09631487 -221.9522841 236.33006942 -219.51953125 234.40234375 C-217.79526172 232.8110513 -216.57065061 231.12367508 -215.25 229.1875 C-214.13625 227.6096875 -214.13625 227.6096875 -213 226 C-212.34 226 -211.68 226 -211 226 C-210.67 225.01 -210.34 224.02 -210 223 C-209.34 223 -208.68 223 -208 223 C-207.75894531 222.44054687 -207.51789063 221.88109375 -207.26953125 221.3046875 C-205.73474572 218.51846146 -203.84910706 216.45735585 -201.6875 214.125 C-199.05732993 211.26648719 -196.48023615 208.41526701 -194.0625 205.375 C-193.381875 204.59125 -192.70125 203.8075 -192 203 C-191.34 203 -190.68 203 -190 203 C-189.6596875 202.195625 -189.6596875 202.195625 -189.3125 201.375 C-186.67023084 196.59375104 -182.83297387 192.83297387 -179 189 C-178.01371261 187.86029013 -177.03518461 186.71384097 -176.0625 185.5625 C-173.51513209 182.55197429 -170.78892997 179.78892997 -168 177 C-167.443125 176.236875 -166.88625 175.47375 -166.3125 174.6875 C-165.879375 174.130625 -165.44625 173.57375 -165 173 C-164.34 173 -163.68 173 -163 173 C-162.6596875 172.195625 -162.6596875 172.195625 -162.3125 171.375 C-159.43568616 166.16933685 -155.16922473 162.16922473 -151 158 C-149.42321 156.13439203 -147.86733771 154.25535986 -146.33203125 152.35546875 C-145.89246094 151.90816406 -145.45289063 151.46085938 -145 151 C-144.34 151 -143.68 151 -143 151 C-142.67 150.01 -142.34 149.02 -142 148 C-141.34 148 -140.68 148 -140 148 C-139.34 146.35 -138.68 144.7 -138 143 C-137.34 143 -136.68 143 -136 143 C-135.72800781 142.41089844 -135.45601562 141.82179687 -135.17578125 141.21484375 C-132.24733367 135.69846576 -127.37231057 131.37231057 -123 127 C-122.09592665 125.90256992 -121.20009916 124.79829661 -120.3125 123.6875 C-119.549375 122.800625 -118.78625 121.91375 -118 121 C-117.34 121 -116.68 121 -116 121 C-115.67 120.01 -115.34 119.02 -115 118 C-113.69205669 116.64175118 -112.35099103 115.31543863 -111 114 C-109.84571946 112.69492272 -108.70065261 111.38166599 -107.5625 110.0625 C-105.54096656 107.7256419 -103.52668329 105.53769066 -101.3125 103.375 C-98.88450387 101.03765087 -98.88450387 101.03765087 -97.0625 98 C-94.69020357 94.54938701 -92.24985646 92.61401498 -89 90 C-88.34 89.01 -87.68 88.02 -87 87 C-86.34 87 -85.68 87 -85 87 C-84.566875 86.1028125 -84.566875 86.1028125 -84.125 85.1875 C-83 83 -83 83 -81 80 C-80.34 80 -79.68 80 -79 80 C-78.78988281 79.47148438 -78.57976562 78.94296875 -78.36328125 78.3984375 C-76.44162344 75.01764123 -73.85991607 72.42990587 -71.1875 69.625 C-68.13324318 66.39330181 -65.10186962 63.17207891 -62.26953125 59.7421875 C-59.98719913 56.9845332 -57.52969246 54.52969246 -55 52 C-54.09565314 50.90279531 -53.19978004 49.79855154 -52.3125 48.6875 C-51.549375 47.800625 -50.78625 46.91375 -50 46 C-49.34 46 -48.68 46 -48 46 C-47.67 45.01 -47.34 44.02 -47 43 C-46.34 43 -45.68 43 -45 43 C-44.73445313 42.41605469 -44.46890625 41.83210938 -44.1953125 41.23046875 C-42.96345428 38.93180521 -41.61820023 37.24623607 -39.875 35.3125 C-39.25625 34.62027344 -38.6375 33.92804687 -38 33.21484375 C-37.34 32.48394531 -36.68 31.75304687 -36 31 C-34.62370566 29.45948872 -33.24870713 27.9178188 -31.875 26.375 C-31.20726562 25.62605469 -30.53953125 24.87710938 -29.8515625 24.10546875 C-28.28435947 22.32335391 -26.7558524 20.52131412 -25.25 18.6875 C-23.26063747 16.31131698 -21.30744704 14.06874562 -19 12 C-18.34 12 -17.68 12 -17 12 C-16.67 11.01 -16.34 10.02 -16 9 C-10.74285714 5 -10.74285714 5 -7 5 C-7 4.34 -7 3.68 -7 3 C-4.69 2.67 -2.38 2.34 0 2 C0 1.34 0 0.68 0 0 Z M25 210 C24.67 210.99 24.34 211.98 24 213 C22.68944271 213.71039554 21.34923424 214.36613157 20 215 C17.88325197 216.46965925 15.81088952 217.95679804 13.75 219.5 C12.91855469 220.10521484 12.91855469 220.10521484 12.0703125 220.72265625 C10.67430835 221.76450171 9.33197608 222.87745412 8 224 C8 224.66 8 225.32 8 226 C7.42765625 226.268125 6.8553125 226.53625 6.265625 226.8125 C3.92115366 228.04132636 1.87595062 229.42522176 -0.25 231 C-0.95640625 231.515625 -1.6628125 232.03125 -2.390625 232.5625 C-3.18726563 233.2740625 -3.18726563 233.2740625 -4 234 C-4 234.66 -4 235.32 -4 236 C-6.475 236.99 -6.475 236.99 -9 238 C-9 238.66 -9 239.32 -9 240 C-10.98 240.495 -10.98 240.495 -13 241 C-13 241.66 -13 242.32 -13 243 C-13.57234375 243.268125 -14.1446875 243.53625 -14.734375 243.8125 C-17.07884634 245.04132636 -19.12404938 246.42522176 -21.25 248 C-21.95640625 248.515625 -22.6628125 249.03125 -23.390625 249.5625 C-23.92171875 250.036875 -24.4528125 250.51125 -25 251 C-25 251.66 -25 252.32 -25 253 C-26.65 253.66 -28.3 254.32 -30 255 C-30 255.66 -30 256.32 -30 257 C-31.485 257.495 -31.485 257.495 -33 258 C-33 258.66 -33 259.32 -33 260 C-33.7425 260.268125 -34.485 260.53625 -35.25 260.8125 C-37.89061949 261.95276751 -39.85552844 263.09380306 -42 265 C-42 265.66 -42 266.32 -42 267 C-42.8353125 267.0928125 -42.8353125 267.0928125 -43.6875 267.1875 C-46.95096487 268.33412279 -48.64054906 270.51955157 -51 273 C-51.99 273.66 -52.98 274.32 -54 275 C-54 275.66 -54 276.32 -54 277 C-54.556875 277.268125 -55.11375 277.53625 -55.6875 277.8125 C-58.21225334 279.10899496 -60.63714484 280.42476323 -63 282 C-63 282.66 -63 283.32 -63 284 C-64.485 284.495 -64.485 284.495 -66 285 C-66 285.66 -66 286.32 -66 287 C-67.65 287.66 -69.3 288.32 -71 289 C-71 289.66 -71 290.32 -71 291 C-72.32 291.33 -73.64 291.66 -75 292 C-75 292.66 -75 293.32 -75 294 C-75.556875 294.268125 -76.11375 294.53625 -76.6875 294.8125 C-79.21225334 296.10899496 -81.63714484 297.42476323 -84 299 C-84 299.66 -84 300.32 -84 301 C-85.485 301.495 -85.485 301.495 -87 302 C-87 302.66 -87 303.32 -87 304 C-88.65 304.66 -90.3 305.32 -92 306 C-92 306.66 -92 307.32 -92 308 C-92.85851562 308.4021875 -92.85851562 308.4021875 -93.734375 308.8125 C-96.07884634 310.04132636 -98.12404938 311.42522176 -100.25 313 C-101.30960938 313.7734375 -101.30960938 313.7734375 -102.390625 314.5625 C-102.92171875 315.036875 -103.4528125 315.51125 -104 316 C-104 316.66 -104 317.32 -104 318 C-105.98 318.495 -105.98 318.495 -108 319 C-108 319.66 -108 320.32 -108 321 C-108.85851562 321.4021875 -108.85851562 321.4021875 -109.734375 321.8125 C-112.07884634 323.04132636 -114.12404938 324.42522176 -116.25 326 C-117.30960938 326.7734375 -117.30960938 326.7734375 -118.390625 327.5625 C-118.92171875 328.036875 -119.4528125 328.51125 -120 329 C-120 329.66 -120 330.32 -120 331 C-122.475 331.99 -122.475 331.99 -125 333 C-125 333.66 -125 334.32 -125 335 C-126.485 335.495 -126.485 335.495 -128 336 C-128 336.66 -128 337.32 -128 338 C-128.556875 338.0825 -129.11375 338.165 -129.6875 338.25 C-132.73677919 339.23895541 -134.65189963 340.84757466 -137 343 C-137 343.66 -137 344.32 -137 345 C-137.598125 345.103125 -138.19625 345.20625 -138.8125 345.3125 C-141.30869017 346.09701691 -142.25731865 347.09889308 -144 349 C-144.66 349.33 -145.32 349.66 -146 350 C-146 350.66 -146 351.32 -146 352 C-146.99 352.33 -147.98 352.66 -149 353 C-149 353.66 -149 354.32 -149 355 C-150.11375 355.4021875 -150.11375 355.4021875 -151.25 355.8125 C-153.89061949 356.95276751 -155.85552844 358.09380306 -158 360 C-158 360.66 -158 361.32 -158 362 C-156.51363242 363.3606009 -156.51363242 363.3606009 -154.625 364.625 C-153.68527344 365.29402344 -153.68527344 365.29402344 -152.7265625 365.9765625 C-151.04777357 367.16996969 -151.04777357 367.16996969 -149 367 C-148.67 367.99 -148.34 368.98 -148 370 C-147.34 370 -146.68 370 -146 370 C-146 370.66 -146 371.32 -146 372 C-145.401875 372.268125 -144.80375 372.53625 -144.1875 372.8125 C-142.02220911 373.98794363 -140.72355889 375.27644111 -139 377 C-138.34 377 -137.68 377 -137 377 C-137 377.66 -137 378.32 -137 379 C-134.82735345 381.04456059 -134.82735345 381.04456059 -132.125 383.125 C-131.22007812 383.84945312 -130.31515625 384.57390625 -129.3828125 385.3203125 C-127.21344189 387.19205234 -127.21344189 387.19205234 -125 387 C-124.67 387.99 -124.34 388.98 -124 390 C-121.98491642 390.73323796 -121.98491642 390.73323796 -120 391 C-120 391.66 -120 392.32 -120 393 C-117.82735345 395.04456059 -117.82735345 395.04456059 -115.125 397.125 C-114.22007812 397.84945312 -113.31515625 398.57390625 -112.3828125 399.3203125 C-110.21344189 401.19205234 -110.21344189 401.19205234 -108 401 C-108 401.66 -108 402.32 -108 403 C-107.0409375 403.1546875 -107.0409375 403.1546875 -106.0625 403.3125 C-105.0415625 403.6528125 -105.0415625 403.6528125 -104 404 C-103.67 404.99 -103.34 405.98 -103 407 C-100.98432421 408.89610305 -100.98432421 408.89610305 -98.5625 410.6875 C-97.75941406 411.31011719 -96.95632813 411.93273437 -96.12890625 412.57421875 C-94.15008209 414.18548601 -94.15008209 414.18548601 -92 414 C-91.67 414.99 -91.34 415.98 -91 417 C-90.34 417.165 -89.68 417.33 -89 417.5 C-88.34 417.665 -87.68 417.83 -87 418 C-86.67 418.99 -86.34 419.98 -86 421 C-85.34 421 -84.68 421 -84 421 C-84 421.66 -84 422.32 -84 423 C-81.03812728 425.17204 -78.49314009 426.83561997 -75 428 C-75 428.66 -75 429.32 -75 430 C-74.0409375 430.1546875 -74.0409375 430.1546875 -73.0625 430.3125 C-72.0415625 430.6528125 -72.0415625 430.6528125 -71 431 C-70.67 431.99 -70.34 432.98 -70 434 C-66.94491974 437.03277199 -66.94491974 437.03277199 -63 438 C-63 438.66 -63 439.32 -63 440 C-61.51363242 441.3606009 -61.51363242 441.3606009 -59.625 442.625 C-58.99851562 443.07101562 -58.37203125 443.51703125 -57.7265625 443.9765625 C-56.04777357 445.16996969 -56.04777357 445.16996969 -54 445 C-53.67 445.99 -53.34 446.98 -53 448 C-51.02678947 449.3726682 -49.02456848 450.70427617 -47 452 C-46 453 -45 454 -44 455 C-43.34 455 -42.68 455 -42 455 C-42 455.66 -42 456.32 -42 457 C-40.51363242 458.3606009 -40.51363242 458.3606009 -38.625 459.625 C-37.99851562 460.07101562 -37.37203125 460.51703125 -36.7265625 460.9765625 C-35.04777357 462.16996969 -35.04777357 462.16996969 -33 462 C-32.67 462.99 -32.34 463.98 -32 465 C-31.34 465 -30.68 465 -30 465 C-30 465.66 -30 466.32 -30 467 C-28.35 467.66 -26.7 468.32 -25 469 C-25 469.66 -25 470.32 -25 471 C-22.82735345 473.04456059 -22.82735345 473.04456059 -20.125 475.125 C-19.22007812 475.84945313 -18.31515625 476.57390625 -17.3828125 477.3203125 C-15.21344189 479.19205234 -15.21344189 479.19205234 -13 479 C-13 479.66 -13 480.32 -13 481 C-12.360625 481.103125 -11.72125 481.20625 -11.0625 481.3125 C-10.381875 481.539375 -9.70125 481.76625 -9 482 C-8.67 482.99 -8.34 483.98 -8 485 C-5.98491642 485.73323796 -5.98491642 485.73323796 -4 486 C-4 486.66 -4 487.32 -4 488 C-1.82735345 490.04456059 -1.82735345 490.04456059 0.875 492.125 C1.77992188 492.84945313 2.68484375 493.57390625 3.6171875 494.3203125 C5.78655811 496.19205234 5.78655811 496.19205234 8 496 C8.33 496.99 8.66 497.98 9 499 C12.62960076 501.97202012 12.62960076 501.97202012 17 503 C17.33 503.99 17.66 504.98 18 506 C19.55847144 507.65899675 19.55847144 507.65899675 21.4375 509.1875 C22.05496094 509.71730469 22.67242188 510.24710938 23.30859375 510.79296875 C24.92500802 512.1936275 24.92500802 512.1936275 27 512 C27 412.34 27 312.68 27 210 C26.34 210 25.68 210 25 210 Z M-425 261 C-425 327 -425 393 -425 461 C-422.525 459.02 -422.525 459.02 -420 457 C-420 456.34 -420 455.68 -420 455 C-419.34 455 -418.68 455 -418 455 C-414.97482091 451.94441577 -414.97482091 451.94441577 -414 448 C-413.01 447.67 -412.02 447.34 -411 447 C-409.24986662 445.31097201 -409.24986662 445.31097201 -407.5625 443.25 C-406.94761719 442.52683594 -406.33273437 441.80367187 -405.69921875 441.05859375 C-404.40588479 439.49172709 -403.13512943 437.9061931 -401.875 436.3125 C-400 434 -400 434 -397.375 431.4375 C-394.96107373 429.20703644 -394.96107373 429.20703644 -393.875 426.75 C-393 425 -393 425 -390 424 C-387.59004634 421.36458982 -387.59004634 421.36458982 -387 418 C-385.02 417.01 -385.02 417.01 -383 416 C-383 415.34 -383 414.68 -383 414 C-382.01 413.67 -381.02 413.34 -380 413 C-378.31424511 411.07687525 -378.31424511 411.07687525 -376.6875 408.75 C-374.53653378 405.86989269 -372.54457847 403.43482471 -369.6875 401.25 C-366.90228187 398.91818948 -365.98392334 397.44373168 -365 394 C-364.34 394 -363.68 394 -363 394 C-359.97482091 390.94441577 -359.97482091 390.94441577 -359 387 C-358.01 386.67 -357.02 386.34 -356 386 C-356 385.34 -356 384.68 -356 384 C-355.38125 383.773125 -354.7625 383.54625 -354.125 383.3125 C-351.3780195 381.61583557 -351.13364727 379.94748289 -350 377 C-349.01 376.67 -348.02 376.34 -347 376 C-345.75416677 374.55745625 -344.51356817 373.10894278 -343.33203125 371.61328125 C-342 370 -342 370 -339.3125 367.4375 C-336.18704687 364.19584189 -336.18704687 364.19584189 -335 360 C-337.40832582 354.82567621 -341.64222965 351.48621628 -346 348 C-346.66 347.01 -347.32 346.02 -348 345 C-348.66 345 -349.32 345 -350 345 C-350.2475 344.21625 -350.495 343.4325 -350.75 342.625 C-352.19494285 339.59062001 -353.05565819 339.32970275 -356 338 C-356.33 337.01 -356.66 336.02 -357 335 C-357.66 335 -358.32 335 -359 335 C-359.28875 334.401875 -359.5775 333.80375 -359.875 333.1875 C-361.04742026 330.80672208 -361.04742026 330.80672208 -363 328 C-363.66 328 -364.32 328 -365 328 C-365.20625 327.278125 -365.4125 326.55625 -365.625 325.8125 C-367.07681259 322.84288333 -368.62463182 321.57632792 -371.2109375 319.6015625 C-374.34623962 316.794851 -376.74127011 313.36284878 -379.265625 310.01171875 C-379.83796875 309.34785156 -380.4103125 308.68398438 -381 308 C-381.66 308 -382.32 308 -383 308 C-383.66 306.68 -384.32 305.36 -385 304 C-385.66 304 -386.32 304 -387 304 C-387.28875 303.401875 -387.5775 302.80375 -387.875 302.1875 C-389.04742026 299.80672208 -389.04742026 299.80672208 -391 297 C-391.66 297 -392.32 297 -393 297 C-393.226875 296.443125 -393.45375 295.88625 -393.6875 295.3125 C-395.00598449 292.98945589 -396.52075155 291.45056009 -398.44140625 289.62109375 C-401.20681973 286.74478649 -403.58696063 283.54863872 -406.03515625 280.40234375 C-407.91580551 278.10294157 -409.79191687 275.98773388 -412 274 C-412.66 274 -413.32 274 -414 274 C-414.28875 273.401875 -414.5775 272.80375 -414.875 272.1875 C-416.04742026 269.80672208 -416.04742026 269.80672208 -418 267 C-418.66 267 -419.32 267 -420 267 C-420.268125 266.38125 -420.53625 265.7625 -420.8125 265.125 C-421.95556848 262.7004767 -421.95556848 262.7004767 -425 261 Z " fill="#2EF170" transform="translate(666,13)"/>
</g>
</svg>